<svg xmlns="http://www.w3.org/2000/svg" viewBox="0 0 269.29 84.71"><defs><style>.cls-1{font-size:33px;}.cls-1,.cls-2,.cls-3{fill:#25408f;}.cls-1,.cls-2{font-family:CenturyGothic-Bold, Century Gothic;font-weight:700;}.cls-2{font-size:14px;}.cls-4{fill:#41ad49;}.cls-5{fill:#d2232a;}.cls-6{fill:#f37321;}.cls-7{fill:#ee3d96;}.cls-8{fill:#0094cc;}.cls-9{fill:none;stroke:#fff;}</style></defs><title>Asset 1</title><g id="Layer_2" data-name="Layer 2"><g id="Layer_1-2" data-name="Layer 1"><text class="cls-1" transform="translate(137.46 60.42)">De Brug</text><text class="cls-2" transform="translate(74.33 80.42)">praktijk voor gezinstherapie</text><path class="cls-3" d="M269.29,35.8s-28.82-17.21-107-9.11C73.16,35.92,31.18,79.84,31.18,79.84H9.92s69.24-66.22,206.58-59c33.66,1.77,52.79,14.95,52.79,14.95"/><path class="cls-4" d="M9.92,70.63A9.92,9.92,0,1,0,0,60.71a9.92,9.92,0,0,0,9.92,9.92"/><path class="cls-5" d="M29.05,54.33a9.92,9.92,0,1,0-9.92-9.92,9.93,9.93,0,0,0,9.92,9.92"/><path class="cls-6" d="M87.4,31.65a9.92,9.92,0,1,0-9.92-9.92,9.92,9.92,0,0,0,9.92,9.92"/><path class="cls-7" d="M238.11,19.84a9.92,9.92,0,1,0-9.92-9.92,9.92,9.92,0,0,0,9.92,9.92"/><path class="cls-8" d="M53.86,52.68a9.93,9.93,0,1,0-9.92-9.92,9.92,9.92,0,0,0,9.92,9.92"/><circle class="cls-9" cx="53.86" cy="42.76" r="9.92" transform="translate(-8.38 13.52) rotate(-13.28)"/></g></g></svg>